<?xml version="1.0" standalone="no"?>
<!DOCTYPE svg PUBLIC "-//W3C//DTD SVG 20010904//EN"
 "http://www.w3.org/TR/2001/REC-SVG-20010904/DTD/svg10.dtd">
<svg version="1.0" xmlns="http://www.w3.org/2000/svg"
 width="259.000000pt" height="259.000000pt" viewBox="0 0 259.000000 259.000000"
 preserveAspectRatio="xMidYMid meet">
<metadata>
Created by potrace 1.14, written by Peter Selinger 2001-2017
</metadata>
<g transform="translate(0.000000,259.000000) scale(0.100000,-0.100000)"
fill="#000000" stroke="none">
<path d="M1243 2553 c-26 -14 -91 -50 -143 -81 -52 -31 -108 -63 -125 -71 -16
-9 -32 -18 -35 -22 -3 -3 -23 -16 -45 -28 -61 -32 -103 -57 -117 -68 -7 -6
-35 -23 -63 -38 -167 -91 -507 -289 -520 -301 -13 -13 -15 -99 -15 -654 l0
-638 28 -18 c15 -10 47 -29 72 -42 25 -14 52 -31 61 -38 8 -8 18 -14 22 -14 3
0 56 -29 117 -65 61 -36 114 -65 117 -65 4 0 14 -6 22 -14 9 -7 44 -29 79 -47
35 -19 80 -44 100 -56 20 -12 51 -29 67 -37 17 -9 44 -25 62 -35 153 -94 346
-201 362 -201 11 0 91 41 178 92 87 50 169 98 183 105 14 8 43 25 65 39 22 14
54 31 70 40 17 8 44 23 60 33 37 22 108 62 155 87 19 11 37 21 40 24 3 3 19
12 35 21 52 28 228 130 278 161 l47 30 0 637 c0 350 -4 641 -8 648 -7 11 -172
110 -292 176 -47 25 -87 48 -190 107 -8 5 -76 44 -150 88 -74 44 -151 89 -170
100 -19 10 -69 39 -110 64 -41 24 -101 58 -132 76 l-57 31 -48 -26z"/>
</g>
</svg>
